<?xml version="1.0" encoding="utf-8"?>
<!-- Generator: Adobe Illustrator 22.0.1, SVG Export Plug-In . SVG Version: 6.00 Build 0)  -->
<svg version="1.1" id="Réteg_1" xmlns="http://www.w3.org/2000/svg" xmlns:xlink="http://www.w3.org/1999/xlink" x="0px" y="0px"
	 viewBox="0 0 60 60" style="enable-background:new 0 0 60 60;" xml:space="preserve">
<g>
	<path d="M33.9,29.7c0.6,1.5,1.2,2.8,1.8,4.2c-3.6,0-7.2,0-11,0c0.6-1.4,1.2-2.7,1.8-4.2c-0.8,0-1.3,0-1.9,0c-3.5,0-6.9,0-10.4,0
		c-1.4,0-1.9-0.6-1.9-2c0-7.7,0-15.5,0-23.2c0-1.4,0.4-1.9,1.8-1.9c10.7,0,21.5,0,32.2,0c1.3,0,1.8,0.4,1.8,1.8c0,7.8,0,15.7,0,23.5
		c0,1.2-0.5,1.8-1.8,1.8c-3.8,0-7.5,0-11.3,0C34.7,29.7,34.5,29.7,33.9,29.7z M14,27.1c10.9,0,21.6,0,32.4,0c0-7.6,0-15.2,0-22.8
		c-10.8,0-21.6,0-32.4,0C14,12,14,19.5,14,27.1z"/>
	<path d="M40.1,35.5c-1.7,0-3.3,0-5,0c-4.3,0-8.7,0-13,0c-0.5,0-0.9,0-1.3,0c-0.2,0-0.4-0.2-0.6-0.3c0.2-0.2,0.4-0.4,0.6-0.5
		c0.7-0.1,1.4,0,2.1,0c4.6,0,9.3,0,13.9,0c0.8,0,1.7,0,2.5,0.1c0.3,0,0.5,0.2,0.8,0.4C40.2,35.2,40.2,35.3,40.1,35.5z"/>
	<path d="M34.3,15.8c0,1.9,0,3.6,0,5.4c0,1.7-0.7,2.4-2.4,2.4c-3.6,0-7.2,0-10.8,0c-1.3,0-2.1-0.8-2.1-2.1c0-2,0-4.1,0-6.1
		c0-1.5,0.7-2.2,2.2-2.2c1,0,2,0,3,0c0.5,0,0.9-0.2,1.2-0.6c1-1,1.9-2.1,3-3c1.8-1.5,3.9-1.9,6.2-1.2c1.4,0.4,2.8,1.1,4.2,1.6
		c0.4,0.2,0.6,0.5,0.6,1c0,1.3,0,2.5,0,3.8c0,0.5-0.2,0.8-0.6,0.9C37.3,16.4,35.8,16.5,34.3,15.8z M19.4,19c4.8,0,9.6,0,14.3,0
		c0-0.6-0.1-1.2,0-1.8c0.2-1.2-0.2-2-1.2-2.7c-0.4-0.3-0.7-0.3-1.1,0c-0.9,0.7-1.9,1.3-2.8,2c-0.5,0.4-1.1,0.3-1.4-0.2
		c-0.2-0.4-0.1-0.9,0-1.4c0.1-0.4,0.5-0.6,0.9-1c-2.6,0-5.1,0-7.6,0c-0.8,0-1.2,0.6-1.2,1.4C19.4,16.4,19.4,17.7,19.4,19z
		 M19.5,21.5c0,1.1,0.5,1.6,1.5,1.7c0.6,0,1.1,0,1.7,0c3.1,0,6.3,0,9.4,0c1.2,0,1.7-0.6,1.6-1.6C28.9,21.5,24.2,21.5,19.5,21.5z
		 M28,13.1c0.6,0.1,2.1-0.8,2.2-1.3c0-0.1,0-0.3-0.1-0.3c-0.1,0-0.3,0-0.4,0C29.1,12.1,28.6,12.6,28,13.1z"/>
	<path d="M39.9,9c1.3,0,2.4,0,3.7,0c0,0.5,0,0.9,0,1.4c0,1.8,0,3.7,0,5.5c0,0.5-0.2,0.8-0.7,0.7c-0.8,0-1.6,0-2.4,0
		c-0.2,0-0.5-0.3-0.5-0.4C39.9,13.8,39.9,11.4,39.9,9z M42.9,12.8C42.9,12.8,42.9,12.8,42.9,12.8c0-0.5,0-1,0-1.4
		c0-1.6,0-1.6-1.6-1.5c-0.5,0-0.7,0.2-0.7,0.7c0,1.2,0,2.4,0,3.5c0,1.8-0.4,1.6,1.8,1.6c0.2,0,0.6-0.4,0.6-0.6
		C43,14.3,42.9,13.6,42.9,12.8z"/>
</g>
</svg>
