<?xml version="1.0" encoding="utf-8"?>
<!-- Generator: Adobe Illustrator 22.0.1, SVG Export Plug-In . SVG Version: 6.00 Build 0)  -->
<svg version="1.1" id="Réteg_1" xmlns="http://www.w3.org/2000/svg" xmlns:xlink="http://www.w3.org/1999/xlink" x="0px" y="0px"
	 viewBox="0 0 60 60" style="enable-background:new 0 0 60 60;" xml:space="preserve">
<style type="text/css">
	.st0{fill:#9D9D9C;}
	.st1{fill:#BE1622;}
</style>
<path class="st0" d="M40.4,18.2L38,15.7l-7.7-7.7L20.2,18.2c0,0.1,0,0.1,0,0.2v15c0,1.5,1.2,2.6,2.6,2.6h15c1.5,0,2.6-1.2,2.6-2.6
	v-15C40.4,18.3,40.4,18.3,40.4,18.2z M26.6,25.3c0,0.5-0.5,1-1,1h-2.4c-0.5,0-1-0.5-1-1v-2.6c0-0.5,0.5-1,1-1h2.4c0.5,0,1,0.5,1,1
	V25.3z M38.6,25.3c0,0.5-0.5,1-1,1h-2.4c-0.6,0-1-0.5-1-1v-2.6c0-0.5,0.4-1,1-1h2.4c0.5,0,1,0.5,1,1V25.3z"/>
<path class="st1" d="M27.4,3.7L13.3,17.8c-0.5,0.5-0.5,1.3,0,1.8l0,0c0.5,0.5,1.3,0.5,1.8,0L29.2,5.5c0.5-0.5,0.5-1.3,0-1.8l0,0
	C28.7,3.2,27.9,3.2,27.4,3.7z"/>
<path class="st1" d="M31.4,5.5l14.1,14.1c0.5,0.5,1.3,0.5,1.8,0l0,0c0.5-0.5,0.5-1.3,0-1.8L33.3,3.7c-0.5-0.5-1.3-0.5-1.8,0l0,0
	C30.9,4.2,30.9,5,31.4,5.5z"/>
</svg>
