<?xml version="1.0" encoding="utf-8"?>
<!-- Generator: Adobe Illustrator 22.0.1, SVG Export Plug-In . SVG Version: 6.00 Build 0)  -->
<svg version="1.1" id="Réteg_1" xmlns="http://www.w3.org/2000/svg" xmlns:xlink="http://www.w3.org/1999/xlink" x="0px" y="0px"
	 viewBox="0 0 100 100" style="enable-background:new 0 0 100 100;" xml:space="preserve">
<style type="text/css">
	.st0{fill:#FFFFFF;}
	.st1{fill:#006633;}
</style>
<path d="M4.5,8.7v47h91.1v-47H4.5z M91.3,42.7c-4.5,0-8.2,3.7-8.2,8.2h-66c0-4.5-3.6-8.2-8.1-8.2V21.2c4.4,0,8-3.5,8.1-7.9h66.1
	c0.1,4.4,3.7,7.9,8.2,7.9V42.7z"/>
<rect x="7" y="11.3" class="st0" width="82.7" height="38.7"/>
<path class="st1" d="M3.4,7.5v45.7h88.6V7.5H3.4z M87.8,40.6c-4.4,0-8,3.6-8,8H15.6c0-4.4-3.5-7.9-7.9-8V19.7c4.3,0,7.8-3.4,7.9-7.7
	h64.3c0.1,4.3,3.6,7.7,7.9,7.7V40.6z"/>
<circle class="st1" cx="47.7" cy="30.3" r="14.4"/>
<g>
	<path class="st0" d="M40.4,22.7h8.1v1.6h-6.2v5H48v1.6h-5.7v6.8h-1.9V22.7z"/>
	<path class="st0" d="M53.5,23.8v3.1h2.8v1.5h-2.8v5.8c0,1.3,0.4,2.1,1.5,2.1c0.5,0,0.9-0.1,1.1-0.1l0.1,1.5c-0.4,0.2-1,0.3-1.7,0.3
		c-0.9,0-1.7-0.3-2.1-0.8c-0.6-0.6-0.8-1.5-0.8-2.8v-5.9h-1.7v-1.5h1.7v-2.6L53.5,23.8z"/>
</g>
</svg>
