<?xml version="1.0" encoding="utf-8"?>
<!-- Generator: Adobe Illustrator 22.0.1, SVG Export Plug-In . SVG Version: 6.00 Build 0)  -->
<svg version="1.1" id="Réteg_1" xmlns="http://www.w3.org/2000/svg" xmlns:xlink="http://www.w3.org/1999/xlink" x="0px" y="0px"
	 viewBox="0 0 80 80" style="enable-background:new 0 0 80 80;" xml:space="preserve">
<style type="text/css">
	.st0{fill:#006633;}
	.st1{fill:#FFFFFF;}
</style>
<rect class="st0" width="80" height="80"/>
<path d="M7.3,13.9V49h68V13.9H7.3z M72.1,39.3c-3.4,0-6.1,2.7-6.1,6.1H16.6c0-3.4-2.7-6.1-6.1-6.1V23.2c3.3,0,6-2.6,6.1-5.9H66
	c0.1,3.3,2.8,5.9,6.1,5.9V39.3z"/>
<rect x="6.5" y="13.3" class="st0" width="65.7" height="31.7"/>
<path class="st1" d="M5.4,12v35.1h68V12H5.4z M70.2,37.4c-3.4,0-6.1,2.7-6.1,6.1H14.8c0-3.4-2.7-6.1-6.1-6.1V21.4
	c3.3,0,6-2.6,6.1-5.9h49.4c0.1,3.3,2.8,5.9,6.1,5.9V37.4z"/>
<circle class="st1" cx="39.5" cy="29.5" r="11.1"/>
<g>
	<path class="st0" d="M33.8,23.7H40v1.3h-4.7v3.8h4.4V30h-4.4v5.2h-1.5V23.7z"/>
	<path class="st0" d="M43.9,24.5v2.4h2.2v1.2h-2.2v4.5c0,1,0.3,1.6,1.1,1.6c0.4,0,0.7-0.1,0.9-0.1l0.1,1.1c-0.3,0.1-0.8,0.2-1.3,0.2
		c-0.7,0-1.3-0.2-1.6-0.6c-0.4-0.4-0.6-1.2-0.6-2.2v-4.5h-1.3v-1.2h1.3v-2L43.9,24.5z"/>
</g>
</svg>
