<?xml version="1.0" encoding="utf-8"?>
<!-- Generator: Adobe Illustrator 22.0.1, SVG Export Plug-In . SVG Version: 6.00 Build 0)  -->
<svg version="1.1" id="Réteg_1" xmlns="http://www.w3.org/2000/svg" xmlns:xlink="http://www.w3.org/1999/xlink" x="0px" y="0px"
	 viewBox="0 0 50 50" style="enable-background:new 0 0 50 50;" xml:space="preserve">
<style type="text/css">
	.st0{fill:#006633;}
	.st1{fill:#FFFFFF;}
</style>
<rect class="st0" width="50" height="50"/>
<path d="M4.5,8.7v21.9h42.5V8.7H4.5z M45.1,24.6c-2.1,0-3.8,1.7-3.8,3.8H10.4c0-2.1-1.7-3.8-3.8-3.8v-10c2.1,0,3.7-1.6,3.8-3.7h30.9
	c0.1,2,1.7,3.7,3.8,3.7V24.6z"/>
<rect x="4" y="8.3" class="st0" width="41" height="19.8"/>
<path class="st1" d="M3.4,7.5v21.9h42.5V7.5H3.4z M43.9,23.4c-2.1,0-3.8,1.7-3.8,3.8H9.2c0-2.1-1.7-3.8-3.8-3.8v-10
	c2.1,0,3.7-1.6,3.8-3.7h30.9c0.1,2,1.7,3.7,3.8,3.7V23.4z"/>
<circle class="st1" cx="24.7" cy="18.5" r="6.9"/>
<g>
	<path class="st0" d="M21.1,14.8H25v0.8h-3V18h2.7v0.8h-2.7V22h-0.9V14.8z"/>
	<path class="st0" d="M27.5,15.3v1.5h1.4v0.7h-1.4v2.8c0,0.6,0.2,1,0.7,1c0.2,0,0.4,0,0.5-0.1l0,0.7c-0.2,0.1-0.5,0.1-0.8,0.1
		c-0.4,0-0.8-0.1-1-0.4c-0.3-0.3-0.4-0.7-0.4-1.4v-2.8h-0.8v-0.7h0.8v-1.2L27.5,15.3z"/>
</g>
</svg>
