<?xml version="1.0" encoding="utf-8"?>
<!-- Generator: Adobe Illustrator 22.0.1, SVG Export Plug-In . SVG Version: 6.00 Build 0)  -->
<svg version="1.1" id="Réteg_1" xmlns="http://www.w3.org/2000/svg" xmlns:xlink="http://www.w3.org/1999/xlink" x="0px" y="0px"
	 viewBox="0 0 60 60" style="enable-background:new 0 0 60 60;" xml:space="preserve">
<style type="text/css">
	.st0{fill:#006633;}
	.st1{fill:#FFFFFF;}
</style>
<rect class="st0" width="60" height="60"/>
<path d="M4.8,9v27.3h53V9H4.8z M55.2,28.8c-2.6,0-4.8,2.1-4.8,4.8H12.1c0-2.6-2.1-4.7-4.7-4.8V16.2c2.6,0,4.6-2.1,4.7-4.6h38.4
	c0.1,2.6,2.2,4.6,4.7,4.6V28.8z"/>
<rect x="4.1" y="8.5" class="st0" width="51.1" height="24.7"/>
<path class="st1" d="M3.3,7.5v27.3h53V7.5H3.3z M53.8,27.3c-2.6,0-4.8,2.1-4.8,4.8H10.6c0-2.6-2.1-4.7-4.7-4.8V14.8
	c2.6,0,4.6-2.1,4.7-4.6H49c0.1,2.6,2.2,4.6,4.7,4.6V27.3z"/>
<circle class="st1" cx="29.8" cy="21.2" r="8.6"/>
<g>
	<path class="st0" d="M25.4,16.6h4.9v1h-3.7v3H30v1h-3.4v4.1h-1.2V16.6z"/>
	<path class="st0" d="M33.3,17.3v1.9H35V20h-1.7v3.5c0,0.8,0.2,1.3,0.9,1.3c0.3,0,0.5,0,0.7-0.1l0.1,0.9c-0.2,0.1-0.6,0.2-1,0.2
		c-0.5,0-1-0.2-1.3-0.5c-0.3-0.3-0.5-0.9-0.5-1.7V20h-1v-0.9h1v-1.6L33.3,17.3z"/>
</g>
</svg>
