<?xml version="1.0" encoding="utf-8"?>
<!-- Generator: Adobe Illustrator 22.0.1, SVG Export Plug-In . SVG Version: 6.00 Build 0)  -->
<svg version="1.1" id="Réteg_1" xmlns="http://www.w3.org/2000/svg" xmlns:xlink="http://www.w3.org/1999/xlink" x="0px" y="0px"
	 viewBox="0 0 60 60" style="enable-background:new 0 0 60 60;" xml:space="preserve">
<style type="text/css">
	.st0{fill:#FAB303;}
	.st1{fill:#FFFFFF;}
</style>
<rect x="-0.1" class="st0" width="60.1" height="60"/>
<g>
	<path class="st1" d="M45.6,10.9c-0.2,1.4-0.5,2.8-0.7,4.2c-0.3,2.2-0.6,4.4-0.9,6.6c-0.1,0.8-0.8,1.3-1.7,1.3c-1.8,0-3.6,0-5.4,0
		c-3.8,0-7.6,0-11.4,0c-0.2,0-0.5,0-0.8,0c0.1,0.6,0.2,1,0.3,1.6c0.3,0,0.6,0,0.8,0c5,0,10,0,14.9,0c1.2,0,1.8,0.8,1.7,1.8
		c-0.1,0.8-0.7,1.3-1.6,1.3c-1,0-2.1,0-3.1,0c-4.5,0-9,0-13.5,0c-1.4,0-1.9-0.4-2.1-1.7c-0.7-4.1-1.4-8.3-2.1-12.4
		c-0.2-1.4-0.5-2.8-0.7-4.2c-0.1-0.3-0.2-0.5-0.6-0.5c-0.4,0-0.9,0-1.3,0c-1,0.1-1.6-0.3-2-1.1c0-0.3,0-0.5,0-0.8
		c0.4-0.9,1.1-1.2,2-1.2c0.6,0,1.3,0,1.9,0c2.3,0,2.5,0.2,2.8,2.5c0.1,0.6,0.3,0.7,0.8,0.7c6.8,0,13.7,0,20.5,0c1,0,1.6,0.3,2,1.2
		C45.6,10.4,45.6,10.6,45.6,10.9z M36.2,15.1c1.9,0,3.7,0,5.6,0c0.1-1,0.3-2,0.4-3.1c-2,0-4,0-6,0C36.2,13,36.2,14,36.2,15.1z
		 M28.3,15.1c0-1.1,0-2.1,0-3.1c-1.8,0-3.6,0-5.4,0c0.2,1.1,0.4,2.1,0.5,3.1C25.1,15.1,26.7,15.1,28.3,15.1z M36.2,19.8
		c1.7,0,3.3,0,4.9,0c0.2-1,0.3-2.1,0.4-3.1c-1.8,0-3.5,0-5.3,0C36.2,17.7,36.2,18.7,36.2,19.8z M29.9,16.7c0,1.1,0,2.1,0,3.1
		c1.6,0,3.1,0,4.6,0c0-1.1,0-2.1,0-3.1C33,16.7,31.5,16.7,29.9,16.7z M29.9,12c0,1.1,0,2.1,0,3.1c1.6,0,3.1,0,4.6,0c0-1,0-2.1,0-3.1
		C33,12,31.5,12,29.9,12z M28.3,19.8c0-1.1,0-2.1,0-3.1c-1.6,0-3.1,0-4.7,0c0.2,1.1,0.3,2.1,0.5,3.1C25.6,19.8,26.9,19.8,28.3,19.8z
		"/>
	<path class="st1" d="M28.3,31.5c0,1.3-1,2.3-2.3,2.4c-1.3,0-2.3-1-2.4-2.3c0-1.3,1-2.3,2.3-2.3C27.3,29.2,28.3,30.2,28.3,31.5z"/>
	<path class="st1" d="M37.8,31.5c0-1.3,1-2.3,2.3-2.3c1.3,0,2.3,1,2.3,2.3c0,1.3-1.1,2.3-2.3,2.3C38.8,33.9,37.8,32.9,37.8,31.5z"/>
</g>
</svg>
