<?xml version="1.0" encoding="utf-8"?>
<!-- Generator: Adobe Illustrator 22.0.1, SVG Export Plug-In . SVG Version: 6.00 Build 0)  -->
<svg version="1.1" id="Réteg_1" xmlns="http://www.w3.org/2000/svg" xmlns:xlink="http://www.w3.org/1999/xlink" x="0px" y="0px"
	 viewBox="0 0 60 60" style="enable-background:new 0 0 60 60;" xml:space="preserve">
<style type="text/css">
	.st0{fill:#36A9E1;}
	.st1{fill:#FFFFFF;}
</style>
<g>
	<path class="st0" d="M36.1,32.1c0.2,0.2,0.3,0.4,0.4,0.6c0,0,0.1,0.1,0.2,0.1c0.4,0,0.7,0,1.1,0c0.1,0,0.1,0,0.2,0.1
		c0.3,0.4,0.7,0.9,1,1.3c0,0,0,0,0,0.1c-0.5,0-0.9,0-1.4,0c0.2,0.3,0.4,0.6,0.6,0.9c0,0,0.1,0,0.2,0c0.3,0,0.7,0,1,0
		c0.1,0,0.1,0,0.2,0.1c0.4,0.5,0.8,1.1,1.2,1.6c0,0,0,0,0,0.1c-0.4,0-0.9,0-1.3,0c0.3,0.4,0.5,0.7,0.8,1.1c-0.4,0-0.8,0-1.2,0
		c0,0-0.1-0.1-0.1-0.1c-0.2-0.3-0.4-0.6-0.5-0.9c0-0.1-0.1-0.1-0.2-0.1c-0.1,0-0.2,0-0.2,0c-3.4,0-6.8,0-10.2,0c-1.9,0-3.8,0-5.7,0
		c-0.1,0-0.2,0-0.2,0.1c-0.2,0.3-0.3,0.6-0.5,0.9C21.3,38,21.2,38,21.1,38c-0.4,0-0.7,0-1.1,0c0.3-0.4,0.5-0.7,0.8-1.1
		c-0.4,0-0.8,0-1.3,0c0.1-0.2,0.3-0.4,0.4-0.5c0.3-0.4,0.6-0.7,0.8-1.1c0.1-0.1,0.1-0.1,0.2-0.1c0.3,0,0.6,0,0.9,0
		c0.1,0,0.1,0,0.2-0.1c0.2-0.3,0.4-0.5,0.6-0.8c-0.4,0-0.9,0-1.3,0c0.1-0.2,0.3-0.3,0.4-0.5c0.2-0.3,0.4-0.6,0.7-0.9
		c0,0,0.1-0.1,0.2-0.1c0.3,0,0.7,0,1,0c0.1,0,0.1,0,0.2-0.1c0.1-0.2,0.2-0.3,0.4-0.6c-0.4,0-0.9,0-1.3,0c0.2-0.2,0.3-0.4,0.5-0.6
		c0.2-0.3,0.4-0.4,0.7-0.3c0.2,0,0.5,0,0.7,0c0.1,0,0.1,0,0.2-0.1c0.1-0.1,0.2-0.3,0.3-0.4c-0.2,0-0.4,0-0.5-0.1
		c-0.9-0.2-1.5-0.7-1.8-1.6c0-0.1-0.1-0.1-0.2-0.2c-1.1-0.3-1.9-1.3-1.9-2.5c0-2.1,0-4.2,0-6.3c0-2.1,0-4.2,0-6.3c0-0.8,0-1.7,0-2.5
		c0.1-2.1,1.5-4,3.6-4.7c0.5-0.2,1.1-0.3,1.6-0.3c2.7,0,5.5,0,8.2,0c2.1,0,3.7,1,4.7,2.8c0.5,0.8,0.7,1.7,0.7,2.6c0,2.6,0,5.2,0,7.8
		c0,1.7,0,3.5,0,5.2c0,0.5,0,1,0,1.5c0,1.2-0.8,2.2-1.9,2.5c-0.1,0-0.1,0.1-0.2,0.1c-0.3,1-1.3,1.7-2.3,1.6c0,0-0.1,0-0.1,0
		c0.1,0.2,0.2,0.3,0.3,0.5c0,0,0.1,0,0.1,0c0.4,0,0.7,0,1.1,0c0.1,0,0.2,0,0.2,0.1c0.2,0.3,0.4,0.5,0.6,0.8
		C37.1,32.1,36.6,32.1,36.1,32.1z M30.5,16.9c0.1,0,0.1,0,0.1,0c2,0,3.9,0,5.9,0c0.6,0,1-0.4,1-1c0-1.2,0-2.4,0-3.5
		c0-0.6-0.4-1.1-1.1-1.1c-1.9,0-3.8,0-5.6,0c-0.1,0-0.2,0-0.3,0C30.5,13.2,30.5,15,30.5,16.9z M29.8,11.3c-0.2,0-0.3,0-0.5,0
		c-1.8,0-3.7,0-5.5,0c-0.4,0-0.8,0.2-0.9,0.6c-0.1,0.1-0.1,0.3-0.1,0.4c0,1.2,0,2.4,0,3.7c0,0.5,0.4,1,0.9,1c0.3,0,0.6,0,0.9,0
		c1.7,0,3.4,0,5.1,0c0.1,0,0.1,0,0.2,0C29.8,15,29.8,13.2,29.8,11.3z M37.3,35.2c-0.2-0.3-0.3-0.5-0.4-0.7c-0.1-0.1-0.2-0.2-0.3-0.2
		c-2.2,0-4.4,0-6.6,0c-2.1,0-4.1,0-6.2,0c-0.1,0-0.2,0-0.2,0c-0.2,0.3-0.3,0.6-0.5,0.9C27.8,35.2,32.5,35.2,37.3,35.2z M26.1,28
		c0.4,0,0.7,0,1.1,0c0.4,0,0.6-0.2,0.6-0.6c0-0.5,0-1.1,0-1.6c0-0.4-0.3-0.6-0.6-0.6c-0.7,0-1.4,0-2.2,0c-0.3,0-0.6,0.3-0.6,0.6
		c0,0.5,0,1.1,0,1.6c0,0.4,0.2,0.6,0.6,0.6C25.4,28,25.7,28,26.1,28z M34.2,28c0.2,0,0.4,0,0.5,0c0.2,0,0.4,0,0.5,0
		c0.4,0,0.6-0.2,0.6-0.6c0-0.5,0-1.1,0-1.6c0-0.3-0.3-0.6-0.6-0.6c-0.7,0-1.4,0-2.2,0c-0.4,0-0.6,0.2-0.6,0.6c0,0.5,0,1,0,1.5
		c0,0.4,0.2,0.6,0.7,0.6C33.5,28,33.8,28,34.2,28z M24.4,32.8c3.8,0,7.6,0,11.4,0c-0.1-0.2-0.2-0.3-0.3-0.5
		c-0.1-0.1-0.1-0.1-0.3-0.1c-2.5,0-5,0-7.5,0c-0.9,0-1.9,0-2.8,0c-0.1,0-0.1,0-0.2,0.1C24.7,32.4,24.5,32.6,24.4,32.8z M34.8,31.2
		c-0.1-0.2-0.2-0.3-0.2-0.4c-0.1-0.1-0.1-0.1-0.2-0.1c-0.7,0-1.4,0-2.1,0c-2.1,0-4.3,0-6.4,0c-0.1,0-0.2,0-0.2,0
		c-0.1,0.1-0.2,0.3-0.3,0.5C28.6,31.2,31.7,31.2,34.8,31.2z M30.2,23.8C30.2,23.8,30.2,23.8,30.2,23.8c2.3,0,4.5,0,6.8,0
		c0.3,0,0.4-0.1,0.4-0.4c0-0.5,0-1,0-1.5c0-0.4-0.1-0.5-0.5-0.5c-2.7,0-5.3,0-8,0c-1.9,0-3.7,0-5.6,0c-0.3,0-0.4,0.1-0.4,0.4
		c0,0.5,0,1.1,0,1.6c0,0.3,0.1,0.4,0.4,0.4C25.6,23.8,27.9,23.8,30.2,23.8z"/>
	<path class="st1" d="M30.5,16.9c0-1.9,0-3.8,0-5.7c0.1,0,0.2,0,0.3,0c1.9,0,3.8,0,5.6,0c0.7,0,1.1,0.5,1.1,1.1c0,1.2,0,2.4,0,3.5
		c0,0.6-0.5,1.1-1,1c-2,0-3.9,0-5.9,0C30.6,16.9,30.6,16.9,30.5,16.9z"/>
	<path class="st1" d="M29.8,11.3c0,1.9,0,3.8,0,5.7c-0.1,0-0.1,0-0.2,0c-1.7,0-3.4,0-5.1,0c-0.3,0-0.6,0-0.9,0c-0.5,0-0.9-0.5-0.9-1
		c0-1.2,0-2.4,0-3.7c0-0.1,0-0.3,0.1-0.4c0.2-0.4,0.5-0.6,0.9-0.6c1.8,0,3.7,0,5.5,0C29.4,11.3,29.6,11.3,29.8,11.3z"/>
	<path class="st1" d="M26.1,28c-0.4,0-0.7,0-1.1,0c-0.4,0-0.6-0.2-0.6-0.6c0-0.5,0-1.1,0-1.6c0-0.4,0.3-0.6,0.6-0.6
		c0.7,0,1.4,0,2.2,0c0.3,0,0.6,0.2,0.6,0.6c0,0.5,0,1.1,0,1.6c0,0.4-0.3,0.6-0.6,0.6C26.8,28,26.5,28,26.1,28z"/>
	<path class="st1" d="M34.2,28c-0.3,0-0.7,0-1,0c-0.4,0-0.6-0.2-0.7-0.6c0-0.5,0-1,0-1.5c0-0.4,0.2-0.6,0.6-0.6c0.7,0,1.4,0,2.2,0
		c0.3,0,0.6,0.3,0.6,0.6c0,0.5,0,1.1,0,1.6c0,0.4-0.3,0.6-0.6,0.6c-0.2,0-0.4,0-0.5,0C34.6,28,34.4,28,34.2,28z"/>
	<path class="st1" d="M30.2,23.8c-2.3,0-4.6,0-6.8,0c-0.3,0-0.4-0.1-0.4-0.4c0-0.5,0-1.1,0-1.6c0-0.3,0.1-0.4,0.4-0.4
		c1.9,0,3.7,0,5.6,0c2.7,0,5.3,0,8,0c0.4,0,0.5,0.1,0.5,0.5c0,0.5,0,1,0,1.5c0,0.3-0.1,0.4-0.4,0.4C34.7,23.8,32.4,23.8,30.2,23.8
		C30.2,23.8,30.2,23.8,30.2,23.8z M30.2,23.6C30.2,23.6,30.2,23.6,30.2,23.6c0.5,0,1,0,1.5,0c1.8,0,3.6,0,5.3,0
		c0.2,0,0.3-0.1,0.3-0.3c0-0.5,0-1,0-1.5c0-0.3,0-0.4-0.4-0.4c-2.5,0-4.9,0-7.4,0c-2.1,0-4.1,0-6.2,0c-0.2,0-0.3,0.1-0.3,0.3
		c0,0.5,0,1,0,1.5c0,0.3,0,0.3,0.3,0.3C25.6,23.6,27.9,23.6,30.2,23.6z"/>
	<path class="st0" d="M30.2,23.6c-2.3,0-4.5,0-6.8,0c-0.3,0-0.3,0-0.3-0.3c0-0.5,0-1,0-1.5c0-0.2,0.1-0.3,0.3-0.3c2.1,0,4.1,0,6.2,0
		c2.5,0,4.9,0,7.4,0c0.3,0,0.4,0,0.4,0.4c0,0.5,0,1,0,1.5c0,0.2-0.1,0.3-0.3,0.3c-1.8,0-3.6,0-5.3,0C31.2,23.6,30.7,23.6,30.2,23.6
		C30.2,23.6,30.2,23.6,30.2,23.6z M37,22.5c0-0.4-0.3-0.8-0.8-0.8c-0.4,0-0.8,0.4-0.8,0.8c0,0.4,0.4,0.8,0.8,0.8
		C36.7,23.3,37,23,37,22.5z M23.3,22.5c0,0.4,0.3,0.8,0.8,0.8c0.4,0,0.8-0.4,0.8-0.8c0-0.4-0.4-0.8-0.8-0.8
		C23.6,21.7,23.3,22.1,23.3,22.5z M34.2,23.3c0.4,0,0.8-0.4,0.8-0.8c0-0.4-0.4-0.8-0.8-0.8c-0.4,0-0.8,0.4-0.8,0.8
		C33.4,23,33.8,23.3,34.2,23.3z M26.1,23.3c0.4,0,0.8-0.3,0.8-0.8c0-0.4-0.4-0.8-0.8-0.8c-0.4,0-0.8,0.4-0.8,0.8
		C25.3,23,25.6,23.3,26.1,23.3z"/>
	<path class="st1" d="M37,22.5c0,0.4-0.4,0.8-0.8,0.8c-0.4,0-0.8-0.4-0.8-0.8c0-0.4,0.4-0.8,0.8-0.8C36.7,21.7,37,22.1,37,22.5z"/>
	<path class="st1" d="M23.3,22.5c0-0.4,0.3-0.8,0.8-0.8c0.4,0,0.8,0.4,0.8,0.8c0,0.4-0.4,0.8-0.8,0.8C23.6,23.3,23.3,23,23.3,22.5z"
		/>
	<path class="st1" d="M34.2,23.3c-0.4,0-0.8-0.4-0.8-0.8c0-0.4,0.4-0.8,0.8-0.8c0.4,0,0.8,0.4,0.8,0.8C35,23,34.7,23.3,34.2,23.3z"
		/>
	<path class="st1" d="M26.1,23.3c-0.4,0-0.8-0.4-0.8-0.8c0-0.4,0.4-0.8,0.8-0.8c0.4,0,0.8,0.4,0.8,0.8C26.9,23,26.5,23.3,26.1,23.3z
		"/>
</g>
</svg>
